<?xml version="1.0" encoding="UTF-8"?>
<svg id="Capa_1" xmlns="http://www.w3.org/2000/svg" version="1.1" viewBox="0 0 248.83 316.36">
  <!-- Generator: Adobe Illustrator 30.0.0, SVG Export Plug-In . SVG Version: 2.1.1 Build 123)  -->
  <defs>
    <style>
      .st0 {
        fill: #0b8882;
      }
    </style>
  </defs>
  <path class="st0" d="M99.72,303.33c-33.68,0-59.78-9.26-59.78-30.31,0-10.52,8.84-20.21,20.63-20.21,14.74,0,28.21,18.52,13.05,37.89,9.26,4.63,18.94,8.42,29.89,8.42,41.68,0,71.15-35.36,71.15-79.15,0-34.94-23.15-58.52-61.04-58.52-8.84,0-18.52,1.26-26.52,3.37l-1.26-2.53c70.31-29.89,98.93-48.84,98.93-85.04,0-24-16.42-42.52-42.1-42.52-21.05,0-42.1,15.58-54.73,37.05l-2.53-2.1c18.1-32,45.47-53.89,77.88-53.89,30.31,0,51.78,22.73,51.78,49.26,0,34.1-27.37,57.26-77.46,76.62v.84h1.68c38.31,2.11,63.99,32.84,63.99,66.94,0,47.99-47.99,93.88-103.57,93.88Z"/>
</svg>