<?xml version="1.0" encoding="UTF-8"?>
<svg id="Capa_1" xmlns="http://www.w3.org/2000/svg" version="1.1" viewBox="0 0 239.74 316.36">
  <!-- Generator: Adobe Illustrator 30.0.0, SVG Export Plug-In . SVG Version: 2.1.1 Build 123)  -->
  <defs>
    <style>
      .st0 {
        fill: #0b8882;
      }
    </style>
  </defs>
  <path class="st0" d="M88.52,293.65c-50.1,0-77.88-40.42-77.88-88.41C10.64,118.51,95.68,26.73,226.19,25.47l-.42,3.37c-85.46,5.05-143.98,60.2-170.08,119.56l.84.42c19.37-15.16,42.1-24.42,64.83-24.42,40.84,0,61.05,28.21,61.05,65.68,0,55.57-44.21,103.57-93.88,103.57ZM88.1,289.86c34.52,0,62.73-42.52,62.73-92.62,0-33.68-14.31-60.2-49.26-60.2-16.42,0-32,5.89-48.84,18.1-8.42,21.47-12.63,42.94-12.63,62.73,0,41.68,14.31,71.99,47.99,71.99Z"/>
</svg>