<?xml version="1.0" encoding="UTF-8"?>
<svg id="Capa_1" xmlns="http://www.w3.org/2000/svg" version="1.1" viewBox="0 0 239.74 316.36">
  <!-- Generator: Adobe Illustrator 30.0.0, SVG Export Plug-In . SVG Version: 2.1.1 Build 123)  -->
  <defs>
    <style>
      .st0 {
        fill: #0b8882;
      }
    </style>
  </defs>
  <path class="st0" d="M104.34,306.62c-50.06,0-87.16-32.18-87.16-71.52s35.31-70.63,85.82-77.33l.45-.89c-25.48-18.33-44.25-39.78-44.25-67.94,0-39.34,37.55-76.44,84.48-76.44,43.36,0,75.99,29.5,75.99,66.6,0,34.42-30.84,59.45-73.76,69.29v.89c27.71,21.01,50.96,43.81,50.96,77.33,0,44.25-42.02,80.01-92.53,80.01ZM141.88,146.6c28.16-12.07,49.62-37.55,49.62-72.86,0-30.4-16.54-56.77-49.17-56.77s-54.98,28.16-54.98,58.11,25.03,50.51,54.53,71.52ZM106.57,302.6c37.1,0,62.13-29.05,62.13-60.35,0-34.42-30.84-59-61.69-81.8-36.21,10.28-61.24,39.78-61.24,80.91,0,33.53,20.56,61.24,60.79,61.24Z"/>
</svg>